<svg id="レイヤー_1" data-name="レイヤー 1" xmlns="http://www.w3.org/2000/svg" xmlns:xlink="http://www.w3.org/1999/xlink" viewBox="0 0 1243.07 454.15"><defs><style>.cls-1{fill:none;}.cls-2{clip-path:url(#clip-path);}.cls-3{fill:#bdffff;}</style><clipPath id="clip-path"><rect class="cls-1" width="1243.07" height="454.15"/></clipPath></defs><title>img_top_catchcopy01</title><g class="cls-2"><path class="cls-3" d="M10.17,454.15C6.6,454.15,0,449.81,0,443.64c0-46.35,33.39-127.38,53.12-168C63.77,253.79,138.17,98.4,136.65,92a5.36,5.36,0,0,1,1.45-5.24c.17-.2,2.75-3.33,9-3.33a21.08,21.08,0,0,1,3,.23c2.91.43,4.74,1.47,5.43,3.07.91,2.12-.26,5-1.65,7C151.78,96.62,142,118,128.46,147.51c-17,37-40.2,87.7-60.48,128.8C35.69,341.74,10.65,428.7,15.54,438.24a2,2,0,0,0,1.49,1.2l.21,0,.2-.07c2.71-1,5.7-2.11,7.32-2.11.51,0,.83.1.95.29.23.37.34,1.61-1.62,5.71-2.08,4.37-10.41,10.86-13.92,10.86"/><path class="cls-3" d="M101.85,330.52a3.36,3.36,0,0,1-.48,0c-4.47-.94-5.43-2.09-5.63-2.54a1,1,0,0,1,.12-1c12.43-21.85,22.41-50.36,27.78-65.68,2-5.77,3.76-10.75,4.27-11.35,1.84-2.05,3.22-2.43,6.16-2.85h.48c2,0,3.59.44,4.24,1.17a1.56,1.56,0,0,1,.37,1.28c-.25,2.27-.7,4.7-1.09,6.84-.8,4.41-1.13,6.4-.42,7.25a1.14,1.14,0,0,0,.88.42c.56,0,1.14-.37,1.94-1.24,12.13-13.07,22.81-20.29,31.73-21.47a23.75,23.75,0,0,1,3.1-.21c4.61,0,8.47,1.57,10.57,4.32a6.08,6.08,0,0,1,1.31,5.2c-4.5,16.71-8.7,37.33-1.23,48.52,3,4.5,7.7,7.2,14,8a24.52,24.52,0,0,0,3,.19c19,0,41.33-21.72,50.88-31a47.12,47.12,0,0,1,3.91-3.61h.07a17.07,17.07,0,0,1,3.49-.51c.86,0,1.44.17,1.6.46s.28.92-1.2,3.06c-4.13,6-6.16,6.91-6.18,6.92l-.16.07-.14.14c-24.22,27.38-44.72,33.13-57.66,33.13-6.85,0-10.94-1.66-12-2.17-4-1.88-13.78-8.14-17.06-25.58-1.68-8.89,1-19.95,2.79-27.26,1.29-5.33,1.7-7.21,1-8.09a1.1,1.1,0,0,0-.9-.44,1.54,1.54,0,0,0-.71.19c-2.43,1.22-24.46,12.94-47.76,49.28a152.61,152.61,0,0,0-9.94,19.1c-1.8,4-3.85,8.45-4.71,8.71a.5.5,0,0,0-.24,0,19.6,19.6,0,0,0-2.36.31,29.59,29.59,0,0,1-3.77.45"/><path class="cls-3" d="M405,283.17a20.38,20.38,0,0,1-10.44-2.77c-3.28-1.91-5.46-5.2-6.49-9.77-2.75-12.27,3.4-31.76,15.68-49.65,1.55-2.26,3.21-4.51,4.92-6.67l.28-.34-.15-.42a5.23,5.23,0,0,1,.32-4.59,4.74,4.74,0,0,1,4.31-2.33,8.58,8.58,0,0,1,1.31.11l.42.07.3-.3c12.08-12.66,25.16-20.22,35-20.22a14.38,14.38,0,0,1,7.25,1.79c9.59,5.54,13.93,23.14,3.1,44.87l-1.2,2.4,2.32-1.35a45.83,45.83,0,0,0,6.5-5.12c.63-.56,1.26-1.12,1.89-1.66a378.46,378.46,0,0,0,31.18-30.46,3.06,3.06,0,0,1,1.95-.57c.3,0,1.31.05,1.6.66.14.3.42,1.54-2.09,4.62-2.27,2.79-22.82,27.7-43.26,42a25,25,0,0,0-2,1.66c-1.65,1.45-3.52,3.09-5.57,3.63l-.28.08-.17.23c-15.11,21.34-32.55,34.08-46.65,34.08h0m1-41.05a73.85,73.85,0,0,0-4.68,13c-.25,1-.55,2.17-.86,3.31a30.63,30.63,0,0,0-1.35,6.52c.06,1.12.07,2.1.08,2.94,0,3.05.06,4.89,2.36,6.07a7.67,7.67,0,0,0,3.55.81c10.58,0,26.09-17.76,30.59-23.2l1.49-1.82-2.29.53a43.83,43.83,0,0,1-9.67,1.43,32.71,32.71,0,0,1-10-1.88c-3.66-1.13-6.09-5-7.7-7.62l-.89-1.44Zm40.81-44.2c-8,0-22.06,12.93-33.5,30.75l-.67,1.06v.2a18.21,18.21,0,0,0,.27,4.5c.82,4.63,9.31,9.25,17.14,9.34h.16a71.69,71.69,0,0,0,10.22-1.33L443,242l.34-.06.19-.29c10.43-15.53,12.07-29.5,10.3-36.75-.75-3.07-2.16-5.25-4.07-6.3a6,6,0,0,0-2.91-.69"/><path class="cls-3" d="M514.62,268.52a19.33,19.33,0,0,1-2.56-.16c-1.9-.24-6.6-1.3-9.19-5.75-2.85-4.92-2.3-12.24,1.62-21.75,2.83-6.87,6.25-14,9.55-21C522.23,202.7,527.12,192,524.6,188a1.77,1.77,0,0,0-1.59-.81c-5.37,0-25,19.53-28.86,23.45a5.41,5.41,0,0,1-3.6,1.71c-.39,0-1.07-.07-1.29-.6-.35-.87.38-2.89,3.48-5.94,1.18-1.16,2.56-2.62,4.16-4.31,8.33-8.82,22.28-23.58,35-23.58a15.52,15.52,0,0,1,3.62.42,5.33,5.33,0,0,1,3.83,3c3.48,7.33-5.49,26.08-13.4,42.63-3.86,8.08-7.51,15.71-9.84,22.08-3.15,8.62-1,12.67-.31,13.71a3.27,3.27,0,0,0,2.61,1.56c1,0,25.28-.89,80.46-78.15a10.18,10.18,0,0,0,1.28-4c.74-4,1.67-9.05,9.8-11.17a6.05,6.05,0,0,1,1.57-.21,5.76,5.76,0,0,1,4.64,2.37,5.29,5.29,0,0,1,.77,4.8l-.36,1.1c-3,9.11-6.23,20-4.33,23.66a2.46,2.46,0,0,0,1.49,1.3,10.87,10.87,0,0,0,3.18.46c4.75,0,10.75-2.77,19.47-9,2.4-1.72,6.38-2,7.59-2.05a.71.71,0,0,1,0,.39c-.06.82-1,3.21-8.53,7.83-10.13,6.22-18.41,11-25.15,11a12,12,0,0,1-3.88-.6c-3.36-1.12-4.78-3.82-4.34-8.25l.27-2.71-1.69,2.13c-.54.69-54.65,68.37-86,68.37"/><path class="cls-3" d="M626.11,242.84a19.11,19.11,0,0,1-3.22-.29c-.34-.06-.63-.1-.89-.13a3.55,3.55,0,0,1-2.14-1.61c-2.62-3.5-4.32-11.13-4-12.75,0-.23.08-.52.12-.88.43-3.47,1.57-12.7,16.52-28.64,14-14.89,39.91-36.92,51.3-36.92a4.43,4.43,0,0,1,3.6,1.42c5.77,6.82,5,10.73,4.57,11.76a2.22,2.22,0,0,1-1.64,1.56l-.21,0c-.82,0-1.36-.94-2-2.27-.56-1.1-1.14-2.24-2.25-2.24a1.7,1.7,0,0,0-.54.09c-35.59,12.95-58.33,48.12-60.11,52.4-.55,1.31-1.55,3.7-.51,5.25a3,3,0,0,0,2.66,1.17c3.58,0,10.51-3.19,21.18-9.74,20.69-12.7,36.75-29.76,46.35-39.95,3.77-4,7.33-7.78,8.23-7.94,1.56.12,5.89,1.72,6.38,2.39.43.85.84,4.45.35,5-3,3-7.31,22.19-3.32,26.18,2.81,2.81,6.78,4.23,11.8,4.23h0c11.64,0,26.67-7.89,32.33-13.54,7.46-7.46,14.3-15.36,20.33-22.33,9.07-10.48,16.91-19.53,23-22.66a5.26,5.26,0,0,1,2.18-.74c.34,0,.37.11.41.22,1,2.92-8.14,17.27-14,21.93l-.45.35a96.65,96.65,0,0,0-13.63,12.61c-21.17,25-35.94,34.76-52.67,34.76-1.52,0-3.11-.08-4.73-.23-12.06-1.16-14.25-13.3-15.43-19.82-.58-3.22-.88-4.83-2.18-4.83a1.47,1.47,0,0,0-1,.49c-30.37,29.86-53.32,45.64-66.35,45.64"/><path class="cls-3" d="M766.79,105.33c-1.36,0-1.73-.34-1.75-.44l0-.32-.2-.17c-.75-1-.44-2,.12-3.3.12-.29.24-.58.33-.85a5.31,5.31,0,0,0,.19-1.48A5.59,5.59,0,0,1,767.84,94c1.56-1.25,3.16-1.34,6.06-1.52a60.71,60.71,0,0,0,11.59-1.66c3.64-.87,10.54-3.87,20.09-8,19.87-8.64,49.89-21.68,80.32-28.44,9-2,23.24-4,33.24-4,7.3,0,9.09,1.12,9.51,1.6a.63.63,0,0,1,.18.52c-.33,2.74-11.92,4.41-22.14,5.87-7.76,1.12-16.55,2.38-23.61,4.32-18,5-74.48,27.1-99.2,37.5-10.17,4.28-14.91,5.18-17.09,5.18"/><path class="cls-3" d="M779.37,215.21q-1,0-1.89-.06c-1.25-.08-6.72-3.54-8.26-9.06s17-56.25,37.84-92.83c8-14,18.61-33.16,28.89-51.7,15-27.08,30.57-55.08,32.53-57.24.61-.67,1.13-1.28,1.58-1.81C871.66.64,872.26,0,873.32,0a4.52,4.52,0,0,1,1.32.23c3.05.9,8,3.27,6.44,9-.32,1.21-6.12,10.55-13.45,22.38-11,17.79-26.17,42.17-39,64.89-33.38,59.08-44.66,93.31-46,100.64a3.71,3.71,0,0,0,.69,3.18c1.33,1.59,3.95,1.79,6.08,1.79,4.34,0,28.34-1.88,75.32-39.08,2.14-1.69,3.87-3.3,5.4-4.73,3.46-3.24,5.75-5.38,9.39-5.38a11.58,11.58,0,0,1,2.38.27c-.08.34-.5,1.41-2.81,4-12.46,14-69.25,58-99.71,58"/><path class="cls-3" d="M908.92,109.65a5.66,5.66,0,0,1-1-.08,1.46,1.46,0,0,1-1-.84c-.84-1.55-.85-5.22,1.66-10.84,3-6.72,5.89-10.88,8.83-12.72a2,2,0,0,1,1-.23c2.8,0,7.31,3.36,7.62,4.37,0,1-3.8,6.58-6.05,9.9a57.21,57.21,0,0,0-3.73,5.85,8.61,8.61,0,0,1-7.28,4.59"/><path class="cls-3" d="M883.59,206.9c-14.11,0-19.23-10.8-19.23-18.05,0-11.64,12.49-30.55,19.95-41.85.82-1.23,1.58-2.39,2.27-3.44a7.36,7.36,0,0,0,.71-4,13,13,0,0,1,.47-4c.46-1.38,3.21-8.26,12.23-8.43h.38c2.63,0,4.28.56,4.89,1.64.81,1.44,0,4.11-2.31,8-1.2,2-3,5.06-5.08,8.63-4.17,7.16-9.35,16.08-13.64,22.78-6.55,10.25-11.12,23-7.42,26.45.79.75,3.22,2.5,8.59,2.5,12.28,0,37.45-8.82,87.58-50.85,2.73-2.29,9.29-5.25,12.52-5.25a1.65,1.65,0,0,1,1.21.32,1.15,1.15,0,0,1,0,.91c-.69,2.13-15.86,17.27-37.23,33.2-18.27,13.61-44.2,30.12-64,31.43-.63,0-1.26.06-1.86.06"/><path class="cls-3" d="M1059.91,301.1c-4,0-8.48-3.19-11.91-8.54-6.93-10.78-10.42-30.89.58-55,6.6-14.45,23.75-36.5,50.36-51.06,7-3.86,13.23-8,19.22-12,2.56-1.71,5-3.33,7.36-4.84l.21-.14.1-.24c6.86-16.87,12.66-29.91,18.24-41.05l-1.36-.83c-3.54,4.81-7.37,9.54-11.39,14.06-15.45,17.35-34.75,29.47-47,29.47a10.83,10.83,0,0,1-7.44-2.41c-9.17-8.16-5.32-32.23,15-55.07,16.82-18.89,37.84-31.1,53.55-31.1A22.74,22.74,0,0,1,1157,85.18a6.11,6.11,0,0,1,2.91,5.11l0,.28.29.3.07,0a3,3,0,0,0,1.76.9c.91,0,1.4-.7,2.57-2.4l.63-.91c.22-.3.81-.47,1.68-.47a24,24,0,0,1,7.93,2.08c-1.58,5.53-26.91,53.56-35.38,69.64l-1.44,2.71,2.54-1.6a261.55,261.55,0,0,1,30.13-16.56c23.62-11.37,60.23-23.28,70.3-23.87h.26c1,0,1.68.34,1.77.85.13.71-.84,2.52-5.46,4.3l-.81.31c-24.53,9.4-70.63,28.88-103.9,53.71l-.18.14-.09.21c-1.39,3.64-2.86,7.56-4.41,11.69-15.52,41.32-39,103.77-66.84,109.34a7.77,7.77,0,0,1-1.46.14Zm57.67-114.29c-30.9,15.3-50.46,33.82-58.13,55-10.94,30.27-8,41.31-5.27,45.2a6.75,6.75,0,0,0,5.58,3.08c7.34,0,16.41-4.28,39.08-55.46,7.89-17.79,14.45-33.66,19.84-46.84l.8-2Zm30.34-96.3c-3,0-6.83.93-11.52,2.76-21.68,8.45-56.49,43.37-55,59,.27,2.87,1.9,6.54,8.17,7.71a7.51,7.51,0,0,0,1.37.12c7.76,0,23.48-10.65,41.1-34.43a97.43,97.43,0,0,0,5.81-9c3.51-5.91,6-10.18,15-14.88,1.22-.64,2.63-4.19,1.93-7-.4-1.6-1.81-4.28-6.81-4.28"/><path class="cls-3" d="M247.64,304.67a3.23,3.23,0,0,1-.48,0c-4.47-.94-5.43-2.09-5.63-2.54a1,1,0,0,1,.12-1c12.43-21.85,22.41-50.36,27.77-65.67,2-5.78,3.77-10.76,4.28-11.36,1.84-2.05,3.22-2.43,6.16-2.85h.48c2,0,3.58.44,4.24,1.17a1.52,1.52,0,0,1,.36,1.28c-.24,2.27-.69,4.7-1.08,6.84-.8,4.41-1.13,6.4-.42,7.25a1.14,1.14,0,0,0,.88.42c.56,0,1.14-.37,1.94-1.24,12.13-13.07,22.81-20.29,31.73-21.47a23.75,23.75,0,0,1,3.1-.21c4.61,0,8.47,1.57,10.57,4.31a6.11,6.11,0,0,1,1.31,5.21c-4.6,17.09-8.88,38.13-1.11,49.23,3,4.32,7.7,6.78,13.88,7.31.3,0,.6,0,.91,0,12.41,0,36.61-20.28,47.43-36.61l-.05,7.79c-21,32.06-40,38.79-52.2,38.79A27.56,27.56,0,0,1,330.29,289c-7.59-3.54-13.59-13.48-16.06-26.58-1.68-8.89,1-19.95,2.79-27.26,1.29-5.33,1.7-7.22,1-8.1a1.12,1.12,0,0,0-.9-.43,1.51,1.51,0,0,0-.71.19c-2.44,1.22-24.47,13-47.76,49.28a152.61,152.61,0,0,0-9.94,19.1c-1.8,4-3.85,8.45-4.71,8.7a.84.84,0,0,0-.24,0,19.86,19.86,0,0,0-2.36.31,29.59,29.59,0,0,1-3.77.45"/><path class="cls-3" d="M950.43,195.13a2.76,2.76,0,0,1-.46,0c-4.23-.88-5-2-5.08-2.28,0-.1-.15-.37.21-.9,14.13-20.41,26.27-46.48,32.79-60.48,2.41-5.18,4.49-9.65,5-10.17,1.92-1.84,3.25-2.18,6.06-2.56h.45c1.86,0,3.33.39,3.84,1a1.13,1.13,0,0,1,.18,1c-.42,2-1,4.21-1.59,6.13-1.16,4.09-1.61,5.79-1,6.63a1.08,1.08,0,0,0,.88.43c.52,0,1.09-.33,1.91-1.1,12.48-11.71,23.1-18.18,31.57-19.23a24.56,24.56,0,0,1,2.91-.18c4.38,0,7.89,1.42,9.63,3.89a4.82,4.82,0,0,1,.78,4.42c-6.2,17.29-11.15,34.54-5.45,43.63,2.22,3.54,5.93,5.61,11,6.15a8.23,8.23,0,0,0,1,.06c7.65,0,21-7.76,31.27-15.7l1.73,7.15c-17.58,16.41-31.63,18.87-38.47,18.87a19.64,19.64,0,0,1-8.15-1.43c-7-3.28-12-12.45-13.35-24.5-.92-8.11,2.45-18.12,4.68-24.74,1.65-4.92,2.14-6.52,1.53-7.38a1.08,1.08,0,0,0-.9-.45,1.59,1.59,0,0,0-.67.16c-2.39,1.1-24.1,11.66-49.39,44.87a158.31,158.31,0,0,0-11.33,17.82c-2.14,3.75-4.56,8-5.44,8.21a.66.66,0,0,0-.22,0,20.24,20.24,0,0,0-2.32.29,30.21,30.21,0,0,1-3.69.43"/></g></svg>